<svg id="Layer_1" data-name="Layer 1" xmlns="http://www.w3.org/2000/svg" viewBox="0 0 16 16"><defs><style>.cls-1{fill:#5589a7;}</style></defs><title>ovis</title><path class="cls-1" d="M14.4,6H9.6v6.4H6.4v.4a2,2,0,0,1-2.21,2A2.08,2.08,0,0,1,2.4,12.68V12.4L.47,10.47A1.61,1.61,0,0,1,0,9.34V4.4A1.6,1.6,0,0,1,1.6,2.8h4V2.4A.4.4,0,0,1,6,2H9.2a.4.4,0,0,1,.4.4v.4h3.2a2.4,2.4,0,0,1,2.4,2.38A.81.81,0,0,1,14.4,6Zm-8-.4A.4.4,0,0,0,6,5.2H2.8a.4.4,0,0,0-.4.4V7.2a.4.4,0,0,0,.4.4H6a.4.4,0,0,0,.4-.4ZM5.2,12.8a.8.8,0,1,0-.8.8A.8.8,0,0,0,5.2,12.8ZM16,9.86V11.6a.8.8,0,0,1-.8.8h-.8v.4a2,2,0,0,1-4,0h0v-6h2.54a1.61,1.61,0,0,1,1.13.47l1.46,1.46A1.61,1.61,0,0,1,16,9.86ZM13.2,12.8a.8.8,0,1,0-.8.8A.8.8,0,0,0,13.2,12.8Zm1.1-3.6L13.22,8.12A.39.39,0,0,0,12.94,8H12V9.2Z"/></svg>